<svg id="圖層_1" data-name="圖層 1" xmlns="http://www.w3.org/2000/svg" viewBox="0 0 189.51 189.51"><defs><style>.cls-1{fill:#261300;}.cls-2{fill:#ff7c00;}</style></defs><title>ai</title><circle class="cls-1" cx="94.75" cy="94.75" r="94.75"/><path class="cls-2" d="M76.3,118.72l-4.49,17.81H57.12L76.3,67.14H95l19.65,69.4H99.23l-4.86-17.81ZM92.3,107,88.37,92.26c-1.12-4.12-2.25-9.27-3.18-13.39H85c-.93,4.12-1.87,9.37-2.9,13.39L78.36,107Z" transform="translate(-5.13 -5.7)"/><path class="cls-2" d="M136.66,72.19c0,4.32-2.9,7.83-7.67,7.83-4.49,0-7.4-3.5-7.4-7.83s3-7.83,7.59-7.83S136.57,67.76,136.66,72.19ZM122,136.54V86.19H136.2v50.35Z" transform="translate(-5.13 -5.7)"/></svg>