<svg id="圖層_2" data-name="圖層 2" xmlns="http://www.w3.org/2000/svg" viewBox="0 0 189.51 189.51"><defs><style>.cls-1{fill:#1f62ae;}.cls-2{fill:#fff;}</style></defs><title>css3</title><circle class="cls-1" cx="94.75" cy="94.75" r="94.75"/><path class="cls-2" d="M132.62,79.62a0,0,0,0,1-.07,0L104.93,91a.89.89,0,0,0,.34,1.71h21.49a4,4,0,0,1,4,4.46l-3.36,31.5a4,4,0,0,1-2.67,3.37l-22.81,8a4,4,0,0,1-2.66,0l-22.7-7.86a4,4,0,0,1-2.69-3.38l-1.52-14.27A2.65,2.65,0,0,1,75,111.58h6.32A2.65,2.65,0,0,1,84,114l.93,8.77,15.72,5.46,15.79-5.51,1.93-18.19H73.68A2.65,2.65,0,0,1,71,102.13l-.85-7.71a2.65,2.65,0,0,1,1.63-2.75L100.4,79.89a.73.73,0,0,0-.28-1.41H70a1.77,1.77,0,0,1-1.76-1.58l-.87-8.28a1.77,1.77,0,0,1,1.76-2h63a1.77,1.77,0,0,1,1.76,2Z" transform="translate(-5.13 -5.7)"/></svg>