<svg id="圖層_2" data-name="圖層 2" xmlns="http://www.w3.org/2000/svg" xmlns:xlink="http://www.w3.org/1999/xlink" viewBox="0 0 189.51 189.51"><defs><style>.cls-1,.cls-7{fill:#fff;}.cls-2{fill:none;}.cls-3{fill:#ffc107;}.cls-4{fill:#0f9d58;}.cls-5{fill:#bf360c;}.cls-12,.cls-13,.cls-5,.cls-6,.cls-7{opacity:0.2;isolation:isolate;}.cls-6{fill:#263238;}.cls-8{fill:url(#radial-gradient);}.cls-9{fill:url(#radial-gradient-2);}.cls-10{fill:#4285f4;}.cls-11{fill:#db4437;}.cls-12{fill:#1a237e;}.cls-13{fill:#3e2723;}.cls-14{fill:url(#radial-gradient-3);}</style><radialGradient id="radial-gradient" cx="115.95" cy="77.57" r="26.5" gradientTransform="matrix(1, 0, 0, -1, -5.13, 196.3)" gradientUnits="userSpaceOnUse"><stop offset="0" stop-color="#bf360c" stop-opacity="0.2"/><stop offset="1" stop-color="#bf360c" stop-opacity="0.02"/></radialGradient><radialGradient id="radial-gradient-2" cx="115.88" cy="77.41" r="26.71" gradientTransform="matrix(1, 0, 0, -1, -5.13, 196.3)" gradientUnits="userSpaceOnUse"><stop offset="0" stop-color="#263238" stop-opacity="0.2"/><stop offset="1" stop-color="#263238" stop-opacity="0.02"/></radialGradient><radialGradient id="radial-gradient-3" cx="79.87" cy="138.26" r="80.43" gradientTransform="matrix(1, 0, 0, -1, 0, 202)" gradientUnits="userSpaceOnUse"><stop offset="0" stop-color="#fff" stop-opacity="0.1"/><stop offset="1" stop-color="#fff" stop-opacity="0"/></radialGradient></defs><title>googledeveloper-icon</title><circle class="cls-1" cx="94.75" cy="94.75" r="94.75"/><g id="_群組_" data-name="&lt;群組&gt;"><g id="_群組_2" data-name="&lt;群組&gt;"><path class="cls-2" d="M127.4,97.86,107.32,63.14H80.47l22.16,38.31L80.47,139.77h26.85L127.4,105A7.17,7.17,0,0,0,127.4,97.86Z" transform="translate(-5.13 -5.7)"/><polygon id="_路徑_" data-name="&lt;路徑&gt;" class="cls-3" points="110.74 118.67 104.38 107.66 89.1 134.07 102.18 134.07 110.92 118.97 110.74 118.67"/><path class="cls-2" d="M127.4,97.86,107.32,63.14H80.47l22.16,38.31L80.47,139.77h26.85L127.4,105A7.17,7.17,0,0,0,127.4,97.86Z" transform="translate(-5.13 -5.7)"/><polygon class="cls-4" points="97.49 95.76 104.38 107.66 89.1 134.07 75.33 134.07 97.49 95.76"/><path class="cls-2" d="M127.4,97.86,107.32,63.14H80.47l22.16,38.31L80.47,139.77h26.85L127.4,105A7.17,7.17,0,0,0,127.4,97.86Z" transform="translate(-5.13 -5.7)"/><polygon class="cls-5" points="102.18 133.47 89.45 133.47 89.1 134.07 102.18 134.07 110.92 118.97 110.74 118.67 102.18 133.47"/><path class="cls-2" d="M127.4,97.86,107.32,63.14H80.47l22.16,38.31L80.47,139.77h26.85L127.4,105A7.17,7.17,0,0,0,127.4,97.86Z" transform="translate(-5.13 -5.7)"/><polygon class="cls-6" points="75.68 133.47 75.33 134.07 89.1 134.07 89.45 133.47 75.68 133.47"/><path class="cls-2" d="M127.4,97.86,107.32,63.14H80.47l22.16,38.31L80.47,139.77h26.85L127.4,105A7.17,7.17,0,0,0,127.4,97.86Z" transform="translate(-5.13 -5.7)"/><polygon class="cls-7" points="75.33 134.07 75.68 134.07 97.67 96.06 97.49 95.76 75.33 134.07"/><path class="cls-2" d="M127.4,97.86,107.32,63.14H80.47l22.16,38.31L80.47,139.77h26.85L127.4,105A7.17,7.17,0,0,0,127.4,97.86Z" transform="translate(-5.13 -5.7)"/><polygon id="_路徑_2" data-name="&lt;路徑&gt;" class="cls-8" points="110.92 118.97 110.92 118.97 104.38 107.66 102.77 110.43 110.92 118.97"/><path class="cls-2" d="M127.4,97.86,107.32,63.14H80.47l22.16,38.31L80.47,139.77h26.85L127.4,105A7.17,7.17,0,0,0,127.4,97.86Z" transform="translate(-5.13 -5.7)"/><polygon id="_路徑_3" data-name="&lt;路徑&gt;" class="cls-9" points="102.77 110.43 104.38 107.66 97.49 95.76 94.21 101.45 102.77 110.43"/><path class="cls-2" d="M127.4,97.86,107.32,63.14H80.47l22.16,38.31L80.47,139.77h26.85L127.4,105A7.17,7.17,0,0,0,127.4,97.86Z" transform="translate(-5.13 -5.7)"/><g id="_群組_3" data-name="&lt;群組&gt;"><g id="_群組_4" data-name="&lt;群組&gt;"><polygon id="_路徑_4" data-name="&lt;路徑&gt;" class="cls-10" points="89.1 57.45 75.33 57.45 110.92 118.97 117.79 107.07 117.8 107.06 89.1 57.45"/></g></g><path class="cls-2" d="M127.4,97.86,107.32,63.14H80.47l22.16,38.31L80.47,139.77h26.85L127.4,105A7.17,7.17,0,0,0,127.4,97.86Z" transform="translate(-5.13 -5.7)"/><path class="cls-11" d="M127.4,105a7.17,7.17,0,0,0,0-7.18L107.32,63.14H94.24l28.7,49.62Z" transform="translate(-5.13 -5.7)"/><path class="cls-2" d="M127.4,97.86,107.32,63.14H80.47l22.16,38.31L80.47,139.77h26.85L127.4,105A7.17,7.17,0,0,0,127.4,97.86Z" transform="translate(-5.13 -5.7)"/><polygon class="cls-12" points="117.8 107.06 117.63 106.77 110.92 118.37 75.68 57.45 75.33 57.45 110.92 118.97 117.79 107.07 117.8 107.06"/><path class="cls-2" d="M127.4,97.86,107.32,63.14H80.47l22.16,38.31L80.47,139.77h26.85L127.4,105A7.17,7.17,0,0,0,127.4,97.86Z" transform="translate(-5.13 -5.7)"/><path class="cls-7" d="M107.32,63.74,127.4,98.46a7.15,7.15,0,0,1,.95,3.29,7.17,7.17,0,0,0-.95-3.89L107.32,63.14H80.47l.35.6Z" transform="translate(-5.13 -5.7)"/><path class="cls-2" d="M127.4,97.86,107.32,63.14H80.47l22.16,38.31L80.47,139.77h26.85L127.4,105A7.17,7.17,0,0,0,127.4,97.86Z" transform="translate(-5.13 -5.7)"/><path id="_路徑_5" data-name="&lt;路徑&gt;" class="cls-13" d="M122.94,112.76,127.4,105a7.17,7.17,0,0,0,.95-3.89,7.15,7.15,0,0,1-.95,3.29l-4.63,8Z" transform="translate(-5.13 -5.7)"/><path class="cls-2" d="M127.4,97.86,107.32,63.14H80.47l22.16,38.31L80.47,139.77h26.85L127.4,105A7.17,7.17,0,0,0,127.4,97.86Z" transform="translate(-5.13 -5.7)"/><path id="_路徑_6" data-name="&lt;路徑&gt;" class="cls-14" d="M127.4,97.86,107.32,63.14H80.47l22.16,38.31L80.47,139.77h26.85L127.4,105A7.17,7.17,0,0,0,127.4,97.86Z" transform="translate(-5.13 -5.7)"/></g></g></svg>