<svg id="圖層_2" data-name="圖層 2" xmlns="http://www.w3.org/2000/svg" viewBox="0 0 189.51 189.51"><defs><style>.cls-1{fill:#dd512a;}.cls-2{fill:#fff;}</style></defs><title>html5</title><circle class="cls-1" cx="94.75" cy="94.75" r="94.75"/><path class="cls-2" d="M132.88,66.87l-.34,3.76-.24,2.72L132,76.82c-.07.82-.14,1.48-.16,1.48H83.31a1.8,1.8,0,0,0-1.82,2l.85,9.55a2.23,2.23,0,0,0,2.17,2h44.35a1.6,1.6,0,0,1,1.62,1.77c-.09,1-.24,2.67-.34,3.76l-2.75,30.8c-.1,1.09-.22,2.49-.28,3.1s-1,1.35-2,1.65l-23.18,6.43-2,.54-2-.53L74.81,132.9a3.1,3.1,0,0,1-2.1-2.52l-1.49-16.77a1.8,1.8,0,0,1,1.82-2H82.3a2.23,2.23,0,0,1,2.17,2l.59,6.56a3.08,3.08,0,0,0,2.1,2.51L98,125.62l1.93.52,1.93-.52,10.87-2.94a3.08,3.08,0,0,0,2.1-2.51L116,107a1.79,1.79,0,0,0-1.82-2H72.45a2.23,2.23,0,0,1-2.17-2L67.38,70.63,67,66.87a1.71,1.71,0,0,1,1.84-1.77H131A1.71,1.71,0,0,1,132.88,66.87Z" transform="translate(-5.13 -5.7)"/></svg>