<svg id="圖層_2" data-name="圖層 2" xmlns="http://www.w3.org/2000/svg" viewBox="0 0 189.51 189.51"><defs><style>.cls-1{fill:#f0db4f;}</style></defs><title>js</title><circle class="cls-1" cx="94.75" cy="94.75" r="94.75"/><path d="M87.69,109.42c0,19.07-8.7,25.48-22.47,25.11a34.28,34.28,0,0,1-10.13-1.83l1.53-11.86a21.81,21.81,0,0,0,7.13,1.28c5.9.11,9.61-2.67,9.61-13V67.49l14.32-.36Z" transform="translate(-5.13 -5.7)"/><path d="M116.12,135.79c-7.61-.2-15-2.41-18.74-4.6l3-12.56A38.11,38.11,0,0,0,117,123.13c7,.12,10.75-2.78,10.75-7.28,0-4.3-3.24-6.78-11.33-9.78-11.07-4-18.17-10.18-18.17-20,0-11.51,9.37-20.56,25.17-21A41,41,0,0,1,141,68.16l-3.5,12.76a31.93,31.93,0,0,0-14.32-3.06c-6.6.11-9.79,3.21-9.79,6.74,0,4.37,3.78,6.27,12.5,9.57,12.12,4.47,17.9,10.89,17.9,20.73,0,11.69-8.95,21.38-27.62,20.89Z" transform="translate(-5.13 -5.7)"/></svg>