<svg xmlns="http://www.w3.org/2000/svg" viewBox="0 0 189.51 189.51"><defs><style>.cls-1{fill:#261300;}.cls-2{fill:#ff7c00;}.cls-3{fill:#001d26;}.cls-4{fill:#00c8ff;}</style></defs><title>ps</title><g id="圖層_1" data-name="圖層 1"><circle class="cls-1" cx="94.75" cy="94.75" r="94.75"/><path class="cls-2" d="M79.3,118.72l-4.49,17.81H60.12L79.3,67.14H98l19.65,69.4H102.23l-4.86-17.81ZM95.3,107,91.37,92.26c-1.12-4.12-2.25-9.27-3.18-13.39H88c-.93,4.12-1.87,9.37-2.9,13.39L81.36,107Z" transform="translate(-5.13 -5.7)"/><path class="cls-2" d="M139.66,72.19c0,4.32-2.9,7.83-7.67,7.83-4.49,0-7.4-3.5-7.4-7.83s3-7.83,7.59-7.83S139.57,67.76,139.66,72.19ZM125,136.54V86.19H139.2v50.35Z" transform="translate(-5.13 -5.7)"/></g><g id="圖層_2" data-name="圖層 2"><circle class="cls-3" cx="94.75" cy="94.75" r="94.75"/><path class="cls-4" d="M57.33,66.53a106.31,106.31,0,0,1,19.28-1.44c8.8,0,15.07,1.85,19.28,5.56,4.12,3.5,6.74,9.27,6.74,16.06s-2,12.67-5.8,16.47c-4.87,4.94-12.07,7.31-20.49,7.31a22.2,22.2,0,0,1-4.87-.41V135H57.33ZM71.47,98a19.32,19.32,0,0,0,4.77.41c7.58,0,12.26-4.22,12.26-11.22,0-6.38-4-10.19-11.23-10.19a23.12,23.12,0,0,0-5.8.52Z" transform="translate(-5.13 -5.7)"/><path class="cls-4" d="M110.75,122.3a26.28,26.28,0,0,0,12.43,3.4c5.15,0,7.87-2.35,7.87-5.9,0-3.4-2.35-5.34-8.31-7.6C114.5,109,109.06,103.94,109.06,96c0-9.3,7.13-16.34,18.75-16.34a26.77,26.77,0,0,1,12.65,2.75L138,92.3a21.51,21.51,0,0,0-10.29-2.59c-4.85,0-7.21,2.51-7.21,5.26,0,3.48,2.72,5,9.19,7.68,8.75,3.56,12.8,8.57,12.8,16.26,0,9.14-6.33,16.9-19.93,16.9-5.66,0-11.25-1.7-14-3.4Z" transform="translate(-5.13 -5.7)"/></g></svg>